<svg xmlns="http://www.w3.org/2000/svg" version="1.1" xmlns:xlink="http://www.w3.org/1999/xlink" xmlns:svgjs="http://svgjs.com/svgjs" width="512" height="512" x="0" y="0" viewBox="0 0 24 24" style="enable-background:new 0 0 512 512" xml:space="preserve" class=""><g><path d="M13.1 19a1 1 0 0 1-.7-1.71l4.6-4.58a1 1 0 0 0 0-1.42l-4.6-4.58a1 1 0 0 1 0-1.42 1 1 0 0 1 1.41 0l4.59 4.59a3 3 0 0 1 0 4.24l-4.59 4.59a1 1 0 0 1-.71.29Z" fill="#ffffff" data-original="#000000"></path><path d="M6.1 19a1 1 0 0 1-.7-1.71L10.69 12 5.4 6.71a1 1 0 0 1 0-1.42 1 1 0 0 1 1.41 0l6 6a1 1 0 0 1 0 1.42l-6 6a1 1 0 0 1-.71.29Z" fill="#ffffff" data-original="#000000"></path></g></svg>